<svg width="100" height="100" viewBox="0 0 100 100" fill="none" xmlns="http://www.w3.org/2000/svg">
<path d="M82.1125 65.4458L76.725 70.8333L82.1125 76.2208C83.7417 77.85 83.7417 80.4833 82.1125 82.1125C81.3 82.925 80.2333 83.3333 79.1667 83.3333C78.1 83.3333 77.0333 82.925 76.2208 82.1125L70.8333 76.725L65.4458 82.1125C64.6333 82.925 63.5667 83.3333 62.5 83.3333C61.4333 83.3333 60.3667 82.925 59.5542 82.1125C57.925 80.4833 57.925 77.85 59.5542 76.2208L64.9417 70.8333L59.5542 65.4458C57.925 63.8167 57.925 61.1833 59.5542 59.5542C61.1833 57.925 63.8167 57.925 65.4458 59.5542L70.8333 64.9417L76.2208 59.5542C77.85 57.925 80.4833 57.925 82.1125 59.5542C83.7417 61.1833 83.7417 63.8167 82.1125 65.4458ZM100 70.8333C100 86.9125 86.9125 100 70.8333 100C54.7542 100 41.6667 86.9125 41.6667 70.8333C41.6667 54.7542 54.7542 41.6667 70.8333 41.6667C86.9125 41.6667 100 54.7542 100 70.8333ZM91.6667 70.8333C91.6667 59.3458 82.3208 50 70.8333 50C59.3458 50 50 59.3458 50 70.8333C50 82.3208 59.3458 91.6667 70.8333 91.6667C82.3208 91.6667 91.6667 82.3208 91.6667 70.8333ZM20.8333 20.8333C26.5875 20.8333 31.25 16.1708 31.25 10.4167C31.25 4.6625 26.5875 0 20.8333 0C15.0792 0 10.4167 4.6625 10.4167 10.4167C10.4167 16.1708 15.0792 20.8333 20.8333 20.8333ZM33.3333 68.5958V95.8333C33.3333 98.1375 31.4708 100 29.1667 100C26.8625 100 25 98.1375 25 95.8333V70.8333H16.6667V95.8333C16.6667 98.1375 14.8042 100 12.5 100C10.1958 100 8.33333 98.1375 8.33333 95.8333V68.5958C3.35417 65.7083 0 60.325 0 54.1667V41.6667C0 32.475 7.475 25 16.6667 25H25C34.1917 25 41.6667 32.475 41.6667 41.6667V54.1667C41.6667 60.325 38.3125 65.7125 33.3333 68.5958ZM33.3333 41.6667C33.3333 37.0708 29.5958 33.3333 25 33.3333H16.6667C12.0708 33.3333 8.33333 37.0708 8.33333 41.6667V54.1667C8.33333 58.7625 12.0708 62.5 16.6667 62.5H25C29.5958 62.5 33.3333 58.7625 33.3333 54.1667V41.6667Z" fill="#2F4858"/>
</svg>
