<svg width="100" height="100" viewBox="0 0 100 100" fill="none" xmlns="http://www.w3.org/2000/svg">
<path d="M95.8335 61.8977H93.0545C92.0128 61.8977 90.9795 61.9882 89.9504 62.1691L60.5933 37.012L67.6263 29.3182C69.2888 27.4995 69.3471 24.4811 67.7555 22.5862C66.1597 20.6865 63.5182 20.6246 61.8641 22.4386L44.4773 41.4588C43.6107 42.4491 42.4316 42.9585 41.1941 42.8395C39.9525 42.7252 38.8609 42.0063 38.1151 40.816C36.9735 39.0069 37.3234 36.1741 38.815 34.4649L58.4101 13.3784C62.1224 9.39345 67.9263 8.41744 72.4678 11.0217L82.1174 16.5349C84.9923 18.1775 88.2172 19.044 91.4295 19.044H95.8293C98.1334 19.044 99.9958 16.9158 99.9958 14.283C99.9958 11.6502 98.1334 9.522 95.8293 9.522H91.4295C89.5004 9.522 87.563 9.00305 85.8381 8.01752L76.1968 2.50429C68.5971 -1.84251 58.8934 -0.228528 52.6936 6.44639L50.1187 9.21729L47.2022 6.17978C43.3732 2.19482 38.4151 0 33.0778 0C29.8654 0 26.6614 0.866502 23.799 2.49952L14.1577 8.01276C12.4286 8.99829 10.4912 9.51723 8.56214 9.51723H4.17066C1.86659 9.51723 0.00416649 11.6454 0.00416649 14.2782C0.00416649 16.9111 1.86659 19.0392 4.17066 19.0392H8.57048C11.7828 19.0392 15.0077 18.168 17.8868 16.5302L27.5364 11.0169C31.7945 8.5698 37.7776 9.23158 41.5941 13.2165L44.0398 15.7637L33.0153 27.6281C28.5446 32.7319 27.8322 40.8018 31.357 46.3769C33.5236 49.8191 37.8276 52.371 41.5399 52.371C44.844 52.371 48.0147 50.8855 50.3062 48.2622L54.4977 43.6774L80.9383 66.335C80.8091 66.4397 55.1144 88.4546 55.1144 88.4546C52.102 91.1302 47.898 91.1303 44.8231 88.4022L19.445 66.654C15.866 63.5831 11.4245 61.893 6.94554 61.893H4.16649C1.86242 61.893 0 64.0211 0 66.654C0 69.2868 1.86242 71.415 4.16649 71.415H6.94554C9.63293 71.415 12.2953 72.4291 14.4452 74.2716L39.765 95.9722C42.7857 98.6574 46.4064 100 50.0187 100C53.6103 100 57.1976 98.6717 60.1725 96.0246L85.5589 74.2763C87.7047 72.4338 90.3671 71.4197 93.0545 71.4197H95.8335C98.1376 71.4197 100 69.2916 100 66.6587C100 64.0259 98.1376 61.8977 95.8335 61.8977Z" fill="#2F4858"/>
</svg>
