<?xml version="1.0" encoding="UTF-8" standalone="no"?>
<!-- Created with Inkscape (http://www.inkscape.org/) -->

<svg
   width="94.460625mm"
   height="89.839111mm"
   viewBox="0 0 94.460625 89.839112"
   version="1.1"
   id="svg1"
   xml:space="preserve"
   sodipodi:docname="logoColorImg.svg"
   inkscape:version="1.3.2 (091e20ef0f, 2023-11-25, custom)"
   xmlns:inkscape="http://www.inkscape.org/namespaces/inkscape"
   xmlns:sodipodi="http://sodipodi.sourceforge.net/DTD/sodipodi-0.dtd"
   xmlns="http://www.w3.org/2000/svg"
   xmlns:svg="http://www.w3.org/2000/svg"><sodipodi:namedview
     id="namedview1"
     pagecolor="#505050"
     bordercolor="#eeeeee"
     borderopacity="1"
     inkscape:showpageshadow="0"
     inkscape:pageopacity="0"
     inkscape:pagecheckerboard="0"
     inkscape:deskcolor="#505050"
     inkscape:document-units="mm"
     inkscape:zoom="0.74086811"
     inkscape:cx="371.18618"
     inkscape:cy="205.83961"
     inkscape:window-width="1366"
     inkscape:window-height="740"
     inkscape:window-x="0"
     inkscape:window-y="0"
     inkscape:window-maximized="1"
     inkscape:current-layer="g7" /><defs
     id="defs1" /><g
     id="layer1"
     transform="translate(182.85402,-29.330449)"><g
       id="g7"
       transform="translate(-240.62381,0.15283947)"><path
         d="m 73.594395,29.177608 v 1.183006 h 5.46061 v 29.760572 h 0.0113 v 1.273897 h -0.0113 v 20.022351 c 0,3.64036 -0.667374,6.46183 -2.002176,8.46403 -1.274121,2.0022 -3.185614,3.00341 -5.733863,3.00341 -1.031436,0 -1.941415,-0.15166 -2.730161,-0.45503 -0.485381,-0.24269 -0.819215,-0.42487 -1.001238,-0.54621 0.910095,0.12134 1.759641,0.0609 2.548387,-0.18177 0.788746,-0.30337 1.456121,-0.72814 2.002176,-1.27419 1.152779,-1.03144 1.729217,-2.33598 1.729217,-3.91347 0,-1.57749 -0.546222,-2.88203 -1.638333,-3.91346 -1.03143,-1.09211 -2.335975,-1.63834 -3.913461,-1.63834 -1.516818,0 -2.821357,0.54623 -3.913468,1.63834 -1.092104,1.03143 -1.607823,2.33597 -1.547148,3.91346 0.06067,1.45614 0.394514,2.66945 1.001237,3.64021 0.667398,0.97077 1.516951,1.75959 2.548387,2.36632 1.031437,0.60673 2.123588,1.0315 3.276366,1.27419 1.152785,0.30336 2.275146,0.45502 3.367257,0.45502 2.912287,0 5.582091,-0.42477 8.008997,-1.27419 2.48758,-0.84942 4.641672,-2.30562 6.461854,-4.36849 1.820177,-2.06287 3.245874,-4.82361 4.277304,-8.28196 1.092111,-3.45833 1.638333,-7.85715 1.638333,-13.19635 v -5.733871 h 16.111568 v 30.306781 h -5.46061 v 1.18301 h 48.14458 v -17.56515 h -1.2739 c -0.18201,3.51906 -0.78894,6.37096 -1.8204,8.55521 -1.03145,2.12357 -2.36617,3.76161 -4.00435,4.9144 -1.69886,1.1528 -3.67071,1.91139 -5.91564,2.27543 -2.24491,0.36404 -4.67206,0.54591 -7.28101,0.54591 H 123.9259 V 61.395083 h 4.18672 c 1.1528,0 2.33586,0.0305 3.54933,0.09118 1.27414,0 2.33605,0.06072 3.18548,0.182068 3.27637,0.303365 5.58177,1.364983 6.91658,3.185188 1.39549,1.759526 2.15408,4.095445 2.27543,7.007765 h 1.18301 V 51.020067 h -1.18301 c -0.2427,2.548277 -1.09223,4.580871 -2.54839,6.097706 -1.39549,1.516835 -3.64045,2.42679 -6.7348,2.730161 -0.66741,0.121342 -1.60787,0.212578 -2.82134,0.273252 h -3.54933 -4.45968 V 30.451505 h 5.91594 c 2.54828,0 4.91441,0.121446 7.09865,0.364136 2.24491,0.182017 4.21679,0.697724 5.91564,1.547149 1.69885,0.9101 3.06409,2.275342 4.09554,4.095536 1.03145,1.759525 1.6988,4.277615 2.00217,7.553976 h 1.27419 V 29.177608 h -46.1424 v 1.183006 h 5.46061 V 60.121186 H 93.434672 V 30.360614 h 5.460616 v -1.183006 z m 5.46061,32.217475 V 60.121186 H 74.606658 71.057333 C 69.84388,60.060516 68.903391,59.969271 68.235988,59.847934 65.14169,59.544569 62.896656,58.63459 61.501181,57.117773 60.045043,55.600955 59.195785,53.568315 58.953094,51.020067 h -1.183306 v 20.841217 h 1.183306 c 0.121349,-2.91229 0.879665,-5.248258 2.275135,-7.007761 1.334795,-1.820182 3.640555,-2.881829 6.916875,-3.185188 0.849414,-0.121342 1.911061,-0.182068 3.185182,-0.182068 1.213453,-0.06067 2.396846,-0.09118 3.549624,-0.09118 z"
         style="font-size:157.829px;line-height:150.578px;font-family:JWH;-inkscape-font-specification:'JWH, Normal';letter-spacing:1.10973px;fill:#2f4858;stroke-width:4.26611;stroke-linecap:round;fill-opacity:1"
         id="path5" /></g></g></svg>
