<svg width="100" height="100" viewBox="0 0 100 100" fill="none" xmlns="http://www.w3.org/2000/svg">
<path d="M95.93 36.6513C93.4713 34.4023 90.2625 33.2777 86.8871 33.4027C83.5533 33.5693 80.4695 35.027 78.1775 37.4843L64.759 52.1865C62.467 48.3965 58.2998 45.8558 53.5491 45.8558H16.669C7.45937 45.8558 0 53.3111 0 62.5156V83.3402C0 92.5447 7.45937 99.9999 16.669 99.9999H37.3385C49.2152 99.9999 60.5501 94.9187 68.4678 86.0474L96.8468 54.2274C101.389 49.1045 100.972 41.2328 95.93 36.6097V36.6513ZM90.6376 48.7296L62.2586 80.5497C55.9244 87.6301 46.8815 91.7117 37.3802 91.7117H16.669C12.085 91.7117 8.33449 87.9633 8.33449 83.3819V62.5572C8.33449 57.9758 12.085 54.2274 16.669 54.2274H53.5908C56.2161 54.2274 58.3414 56.3515 58.3414 58.9754C58.3414 61.3077 56.5912 63.3486 54.2575 63.6817L32.7545 66.7638C30.4626 67.097 28.879 69.1795 29.2124 71.4702C29.5458 73.7609 31.6711 75.3436 33.9214 75.0104L55.4244 71.9283C60.3417 71.2203 64.3006 67.805 65.8841 63.3486L84.345 43.107C85.0951 42.274 86.137 41.7742 87.2621 41.7326C88.3873 41.7326 89.4707 42.0658 90.3042 42.8154C92.0128 44.3565 92.1378 47.022 90.5959 48.7296H90.6376Z" fill="#2F4858"/>
<path d="M37.5052 41.691H39.0888C45.1313 41.691 50.007 36.7763 50.007 30.7788C50.007 25.4061 46.1731 20.8663 40.8807 19.9917L27.2121 17.701C25.962 17.4927 25.0452 16.4098 25.0452 15.1187C25.0452 13.7026 26.212 12.5364 27.6289 12.5364H38.6304C40.1306 12.5364 41.5058 13.3278 42.2559 14.6189C43.3811 16.6181 45.9231 17.2845 47.965 16.1183C49.9653 14.9521 50.6321 12.4115 49.4652 10.4123C47.2566 6.58059 43.0893 4.16493 38.6304 4.16493H37.5052C37.5052 1.87422 35.63 0 33.338 0C31.046 0 29.1707 1.87422 29.1707 4.16493H27.5872C21.5447 4.16493 16.669 9.07955 16.669 15.077C16.669 20.4498 20.5029 24.9896 25.7953 25.8642L39.4638 28.1549C40.714 28.3632 41.6308 29.4461 41.6308 30.7372C41.6308 32.1533 40.464 33.3194 39.0471 33.3194H28.0456C26.5454 33.3194 25.1702 32.5281 24.4201 31.237C23.2533 29.2378 20.7112 28.5714 18.711 29.7376C16.7107 30.9038 16.0439 33.4444 17.2108 35.4436C19.4194 39.2753 23.5866 41.691 28.0456 41.691H29.1707C29.1707 43.9817 31.046 45.8559 33.338 45.8559C35.63 45.8559 37.5052 43.9817 37.5052 41.691Z" fill="#2F4858"/>
</svg>
