<svg width="100" height="100" viewBox="0 0 100 100" fill="none" xmlns="http://www.w3.org/2000/svg">
<path d="M10.4167 10.4167C10.4167 4.66667 15.0833 0 20.8333 0C26.5833 0 31.25 4.66667 31.25 10.4167C31.25 16.1667 26.5833 20.8333 20.8333 20.8333C15.0833 20.8333 10.4167 16.1667 10.4167 10.4167ZM41.6667 41.6667V54.1667C41.6667 60.3333 38.2917 65.7083 33.3333 68.5833V95.8333C33.3333 98.125 31.4583 100 29.1667 100C26.875 100 25 98.125 25 95.8333V70.8333H16.6667V95.8333C16.6667 98.125 14.7917 100 12.5 100C10.2083 100 8.33333 98.125 8.33333 95.8333V68.5833C3.375 65.7083 0 60.2917 0 54.1667V41.6667C0 32.4583 7.45833 25 16.6667 25H25C34.2083 25 41.6667 32.4583 41.6667 41.6667ZM33.3333 41.6667C33.3333 37.0833 29.5833 33.3333 25 33.3333H16.6667C12.0833 33.3333 8.33333 37.0833 8.33333 41.6667V54.1667C8.33333 58.75 12.0833 62.5 16.6667 62.5H25C29.5833 62.5 33.3333 58.75 33.3333 54.1667V41.6667ZM79.1667 20.8333C84.9167 20.8333 89.5833 16.1667 89.5833 10.4167C89.5833 4.66667 84.9167 0 79.1667 0C73.4167 0 68.75 4.66667 68.75 10.4167C68.75 16.1667 73.4167 20.8333 79.1667 20.8333ZM100 41.6667V54.1667C100 60.3333 96.625 65.7083 91.6667 68.5833V95.8333C91.6667 98.125 89.7917 100 87.5 100C85.2083 100 83.3333 98.125 83.3333 95.8333V70.8333H75V95.8333C75 98.125 73.125 100 70.8333 100C68.5417 100 66.6667 98.125 66.6667 95.8333V68.5833C61.7083 65.7083 58.3333 60.2917 58.3333 54.1667V41.6667C58.3333 32.4583 65.7917 25 75 25H83.3333C92.5417 25 100 32.4583 100 41.6667ZM91.6667 41.6667C91.6667 37.0833 87.9167 33.3333 83.3333 33.3333H75C70.4167 33.3333 66.6667 37.0833 66.6667 41.6667V54.1667C66.6667 58.75 70.4167 62.5 75 62.5H83.3333C87.9167 62.5 91.6667 58.75 91.6667 54.1667V41.6667Z" fill="#2F4858"/>
</svg>
