<svg width="100" height="100" viewBox="0 0 100 100" fill="none" xmlns="http://www.w3.org/2000/svg">
<path d="M66.6521 33.3191C61.9514 33.3231 57.3052 34.3278 53.0216 36.2665C48.738 38.2052 44.9149 41.0336 41.8059 44.5643C39.8241 43.5996 37.7376 42.8673 35.5881 42.3819L41.2818 31.0159C41.5979 30.3822 41.7473 29.6783 41.716 28.9707C41.6848 28.263 41.4738 27.5751 41.103 26.9718C39.7827 25.0449 38.0067 23.4751 35.9334 22.4024C33.8601 21.3298 31.5539 20.7877 29.2205 20.8244C26.8907 20.7912 24.5887 21.3349 22.5193 22.4074C20.4499 23.4799 18.6772 25.0478 17.3589 26.9718C16.9881 27.5751 16.7771 28.263 16.7458 28.9707C16.7145 29.6783 16.864 30.3822 17.18 31.0159L22.853 42.3736C18.5732 43.3173 14.5613 45.2163 11.1166 47.9291C7.67188 50.6419 4.88315 54.0984 2.95839 58.0409C1.03362 61.9835 0.0224849 66.3102 0.000370733 70.6987C-0.0217434 75.0871 0.945739 79.4239 2.83067 83.3856C4.71561 87.3474 7.46935 90.8319 10.8866 93.5794C14.3038 96.3269 18.2963 98.2663 22.5664 99.2532C26.8365 100.24 31.2739 100.249 35.5479 99.279C39.8218 98.3091 43.822 96.3856 47.2501 93.6517C51.5064 96.7292 56.4294 98.7544 61.6169 99.5619C66.8044 100.369 72.109 99.9362 77.0973 98.2977C82.0856 96.6592 86.616 93.862 90.3181 90.1347C94.0202 86.4073 96.789 81.8556 98.3983 76.8515C100.007 71.8475 100.411 66.5331 99.5771 61.3428C98.7428 56.1525 96.6938 51.2336 93.5978 46.988C90.5017 42.7425 86.4463 39.2908 81.7631 36.9151C77.08 34.5394 71.9019 33.3072 66.6521 33.3191ZM46.83 81.7568C44.0682 78.1632 42.3447 73.8793 41.8474 69.3721C41.3502 64.8649 42.0983 60.3075 44.0102 56.1968C47.3055 59.5053 49.3796 63.8375 49.892 68.4821C50.4044 73.1267 49.3247 77.8077 46.83 81.7568ZM8.4252 70.8031C8.41642 67.3892 9.24812 64.0257 10.8467 61.0103C12.4453 57.9949 14.7615 55.4206 17.5903 53.5152C20.4191 51.6098 23.6733 50.4321 27.065 50.0862C30.4566 49.7403 33.8811 50.237 37.0354 51.5322C34.0677 57.3186 32.8662 63.8518 33.5806 70.3173C34.295 76.7829 36.8938 82.8949 41.0531 87.8917C37.9387 90.0673 34.2879 91.3456 30.4983 91.5874C26.7087 91.8291 22.9255 91.0251 19.5606 89.2627C16.1957 87.5004 13.3781 84.8474 11.4147 81.5925C9.45129 78.3377 8.41725 74.6057 8.4252 70.8031ZM66.6521 91.6276C61.8066 91.6291 57.0668 90.2086 53.0187 87.5418C57.1137 81.7453 58.9428 74.6459 58.1593 67.589C57.3759 60.5321 54.0344 54.0083 48.7681 49.254C51.636 46.2884 55.193 44.0805 59.121 42.8276C63.0491 41.5747 67.2259 41.3158 71.2783 42.0741C75.3307 42.8325 79.1323 44.5843 82.3435 47.1732C85.5546 49.762 88.0753 53.1072 89.6802 56.9098C91.2851 60.7124 91.9243 64.854 91.5405 68.9643C91.1568 73.0747 89.7622 77.0258 87.4812 80.4646C85.2003 83.9034 82.1041 86.7228 78.4694 88.6707C74.8347 90.6187 70.7746 91.6346 66.6521 91.6276ZM42.1344 14.7979L46.2935 6.46807C46.7866 5.47946 47.6516 4.72748 48.6983 4.37756C49.2166 4.2043 49.7639 4.13496 50.309 4.1735C50.854 4.21205 51.3861 4.35772 51.875 4.6022C52.3638 4.84668 52.7998 5.18519 53.1579 5.59839C53.5161 6.01159 53.7895 6.4914 53.9626 7.01041C54.1356 7.52942 54.2048 8.07748 54.1663 8.62329C54.1278 9.1691 53.9824 9.70197 53.7382 10.1915L49.5792 18.5213C49.335 19.0108 48.997 19.4473 48.5844 19.806C48.1717 20.1647 47.6926 20.4385 47.1743 20.6118C46.656 20.785 46.1087 20.8544 45.5637 20.8158C45.0187 20.7773 44.4865 20.6316 43.9977 20.3871C43.0105 19.8934 42.2595 19.0271 41.9101 17.9789C41.5607 16.9307 41.6414 15.7865 42.1344 14.7979ZM4.70283 10.1915C4.20977 9.20011 4.13017 8.05319 4.48155 7.00305C4.83293 5.9529 5.5865 5.08555 6.57649 4.59179C7.56648 4.09804 8.71179 4.01833 9.76047 4.3702C10.8091 4.72207 11.6753 5.4767 12.1684 6.46807L16.3274 14.7979C16.5716 15.2874 16.717 15.8202 16.7555 16.366C16.794 16.9119 16.7248 17.4599 16.5518 17.9789C16.3787 18.4979 16.1053 18.9777 15.7471 19.3909C15.3889 19.8041 14.953 20.1427 14.4642 20.3871C13.9753 20.6316 13.4432 20.7773 12.8982 20.8158C12.3531 20.8544 11.8058 20.785 11.2875 20.6118C10.2408 20.2619 9.37576 19.5099 8.88269 18.5213L4.70283 10.1915ZM25.0615 12.4947V4.16489C25.0615 3.06029 25.4997 2.00094 26.2796 1.21987C27.0596 0.4388 28.1175 0 29.2205 0C30.3236 0 31.3815 0.4388 32.1614 1.21987C32.9414 2.00094 33.3796 3.06029 33.3796 4.16489V12.4947C33.3796 13.5993 32.9414 14.6586 32.1614 15.4397C31.3815 16.2208 30.3236 16.6596 29.2205 16.6596C28.1175 16.6596 27.0596 16.2208 26.2796 15.4397C25.4997 14.6586 25.0615 13.5993 25.0615 12.4947Z" fill="#2F4858"/>
</svg>
