<?xml version="1.0" encoding="UTF-8" standalone="no"?>
<svg
   id="Layer_1"
   data-name="Layer 1"
   viewBox="0 0 24 24"
   width="512"
   height="512"
   version="1.1"
   sodipodi:docname="rule.svg"
   inkscape:version="1.3.2 (091e20ef0f, 2023-11-25, custom)"
   xmlns:inkscape="http://www.inkscape.org/namespaces/inkscape"
   xmlns:sodipodi="http://sodipodi.sourceforge.net/DTD/sodipodi-0.dtd"
   xmlns="http://www.w3.org/2000/svg"
   xmlns:svg="http://www.w3.org/2000/svg">
  <defs
     id="defs1" />
  <sodipodi:namedview
     id="namedview1"
     pagecolor="#505050"
     bordercolor="#eeeeee"
     borderopacity="1"
     inkscape:showpageshadow="0"
     inkscape:pageopacity="0"
     inkscape:pagecheckerboard="0"
     inkscape:deskcolor="#505050"
     inkscape:zoom="0.5625"
     inkscape:cx="256"
     inkscape:cy="255.11111"
     inkscape:window-width="1366"
     inkscape:window-height="740"
     inkscape:window-x="859"
     inkscape:window-y="1080"
     inkscape:window-maximized="1"
     inkscape:current-layer="Layer_1" />
  <path
     d="M10,14V0H3C1.346,0,0,1.346,0,3V21c0,1.654,1.346,3,3,3H21c1.654,0,3-1.346,3-3v-7H10Zm12,7c0,.552-.448,1-1,1H3c-.551,0-1-.448-1-1V3c0-.552,.449-1,1-1h5V6h-3v2h3v2h-3v2h3v2h-3v2h3v3h2v-3h2v3h2v-3h2v3h2v-3h4v5Z"
     id="path1"
     style="fill:#2f4858;fill-opacity:1" />
</svg>
